<svg width="211" height="50" viewBox="0 0 211 50" fill="none" xmlns="http://www.w3.org/2000/svg">
<g clip-path="url(#clip0)">
<path d="M64.2996 17.2803C63.6055 16.3975 62.7174 15.6824 61.7025 15.1893C60.6876 14.6962 59.5725 14.4379 58.4417 14.434C54.2812 14.434 50.8951 17.8813 50.8951 22.1189C50.8951 26.3565 54.2812 29.8038 58.4417 29.8038C59.8771 29.8041 61.2811 29.3883 62.48 28.6079V29.4068H65.9883V22.1189C65.9932 20.3639 65.3981 18.6587 64.2996 17.2803ZM58.4417 26.2588C56.2577 26.2588 54.48 24.4008 54.48 22.1189C54.48 19.837 56.2577 17.979 58.4417 17.979C60.6258 17.979 62.4034 19.8358 62.4034 22.1189C62.4034 24.402 60.627 26.2588 58.4417 26.2588Z" fill="#33CC66"/>
<path d="M72.0205 29.4068H68.4838V8.41782H72.0205V29.4068Z" fill="#33CC66"/>
<path d="M78.1106 29.4068H74.5726V8.41782H78.1106V29.4068Z" fill="#33CC66"/>
<path d="M82.4169 13.5667C82.1198 13.5751 81.8243 13.5221 81.5491 13.4113C81.2739 13.3005 81.025 13.1341 80.8184 12.9229C80.609 12.7132 80.4446 12.4637 80.3351 12.1896C80.2255 11.9154 80.1731 11.6222 80.181 11.3276C80.173 11.0351 80.2253 10.7441 80.3349 10.4724C80.4444 10.2006 80.6089 9.95376 80.8181 9.74695C81.0274 9.54013 81.2771 9.37768 81.552 9.2695C81.8268 9.16132 82.1212 9.10969 82.4169 9.11776C82.7148 9.10999 83.0112 9.16169 83.2884 9.26978C83.5656 9.37787 83.8179 9.54014 84.0302 9.74687C84.2435 9.95143 84.4115 10.1975 84.5235 10.4696C84.6356 10.7417 84.6893 11.0339 84.6812 11.3276C84.6891 11.6222 84.6367 11.9154 84.5271 12.1896C84.4176 12.4637 84.2532 12.7132 84.0438 12.9229C83.8326 13.136 83.5789 13.3033 83.2988 13.4141C83.0187 13.5249 82.7184 13.5769 82.4169 13.5667ZM84.1994 29.4068H80.6627V14.8542H84.1994V29.4068Z" fill="#33CC66"/>
<path d="M86.8085 29.4068V14.8542H90.3464V16.617C91.4228 15.1617 92.8945 14.434 94.7615 14.434C96.4217 14.434 97.7991 14.9752 98.8936 16.0575C100.006 17.1577 100.563 18.5104 100.563 20.1155V29.4068H97.0258V21.1001C97.0258 20.1489 96.7096 19.3557 96.0771 18.7205C95.7708 18.4093 95.4028 18.1641 94.9961 18.0003C94.5894 17.8366 94.1529 17.7578 93.7139 17.7689C93.2687 17.758 92.8259 17.8367 92.4123 18.0002C91.9988 18.1637 91.6231 18.4086 91.3082 18.72C90.9933 19.0314 90.7457 19.4028 90.5803 19.8118C90.415 20.2207 90.3354 20.6586 90.3464 21.0989V29.4055L86.8085 29.4068Z" fill="#33CC66"/>
<path d="M113.332 14.6026C115.861 14.6026 117.814 15.5913 119.19 17.5686V8.41782H120.945V29.4068H119.188V26.6925C118.542 27.613 117.677 28.3626 116.67 28.8754C115.638 29.3999 114.494 29.6686 113.334 29.6584C111.259 29.6584 109.523 28.9401 108.127 27.5036C106.75 26.0849 106.061 24.2933 106.062 22.1287C106.063 19.9641 106.751 18.1724 108.127 16.7538C109.522 15.3197 111.256 14.6026 113.332 14.6026ZM117.521 18.0132C116.444 16.8935 115.105 16.3336 113.502 16.3336C111.9 16.3336 110.56 16.8935 109.484 18.0132C108.407 19.1135 107.87 20.4845 107.871 22.1262C107.871 23.768 108.409 25.1488 109.484 26.2686C110.559 27.3696 111.898 27.9201 113.502 27.9201C115.107 27.9201 116.446 27.3696 117.521 26.2686C118.595 25.1496 119.133 23.7688 119.134 22.1262C119.135 20.4836 118.597 19.1126 117.521 18.0132Z" fill="#34394F"/>
<path d="M138.768 22.6625H125.581C125.667 24.1363 126.326 25.5201 127.421 26.5239C128.552 27.5321 129.929 28.0358 131.552 28.035C132.526 28.0458 133.488 27.8201 134.353 27.3778C135.184 26.9562 135.895 26.3354 136.42 25.5723L138.117 26.1318C137.467 27.2236 136.527 28.1188 135.4 28.7203C134.219 29.3532 132.894 29.6762 131.55 29.6584C129.343 29.6584 127.495 28.9401 126.004 27.5036C124.532 26.0849 123.796 24.2933 123.796 22.1287C123.796 19.9641 124.513 18.1724 125.947 16.7538C127.4 15.3172 129.183 14.5989 131.296 14.5989C133.409 14.5989 135.192 15.3172 136.645 16.7538C138.08 18.1716 138.796 19.9633 138.796 22.1287C138.803 22.3071 138.794 22.4857 138.768 22.6625ZM125.612 21.2064H136.99C136.818 19.8182 136.132 18.5421 135.065 17.6248C134.008 16.6915 132.744 16.2253 131.273 16.2261C129.801 16.2269 128.537 16.6931 127.48 17.6248C126.44 18.5393 125.817 19.7332 125.612 21.2064Z" fill="#34394F"/>
<path d="M143.671 29.4068H141.918V8.41782H143.673L143.671 29.4068Z" fill="#34394F"/>
<path d="M146.645 11.2445C146.607 10.7217 146.819 10.3483 147.281 10.1243C147.495 10.0142 147.733 9.95663 147.975 9.95663C148.216 9.95663 148.454 10.0142 148.668 10.1243C149.13 10.3491 149.342 10.7225 149.305 11.2445C149.315 11.4236 149.283 11.6026 149.212 11.7676C149.141 11.9326 149.032 12.0792 148.894 12.1961C148.638 12.413 148.312 12.5321 147.975 12.5321C147.637 12.5321 147.311 12.413 147.055 12.1961C146.917 12.0794 146.809 11.9328 146.737 11.7678C146.666 11.6027 146.635 11.4236 146.645 11.2445ZM148.852 29.4068H147.097V14.8542H148.852V29.4068Z" fill="#34394F"/>
<path d="M158.568 29.4068L152.088 14.8542H153.927L159.362 27.1395L164.798 14.8542H166.637L160.128 29.4068H158.568Z" fill="#34394F"/>
<path d="M182.77 22.6625H169.582C169.669 24.136 170.328 25.5194 171.422 26.5239C172.553 27.5321 173.93 28.0358 175.554 28.035C176.528 28.0456 177.49 27.82 178.355 27.3778C179.185 26.9558 179.896 26.3351 180.421 25.5723L182.119 26.1318C181.469 27.2235 180.529 28.1186 179.402 28.7203C178.221 29.3532 176.896 29.6762 175.554 29.6584C173.347 29.6584 171.498 28.9402 170.007 27.5036C168.535 26.0849 167.799 24.2933 167.8 22.1287C167.8 19.9641 168.517 18.1724 169.95 16.7538C171.403 15.3172 173.186 14.5989 175.299 14.5989C177.412 14.5989 179.195 15.3172 180.647 16.7538C182.081 18.1716 182.798 19.9633 182.799 22.1287C182.806 22.3071 182.796 22.4858 182.77 22.6625ZM169.611 21.2064H180.987C180.815 19.8185 180.13 18.5426 179.063 17.6248C178.006 16.6915 176.742 16.2253 175.271 16.2261C173.8 16.2269 172.536 16.6931 171.478 17.6248C170.441 18.5393 169.818 19.7332 169.611 21.2064Z" fill="#34394F"/>
<path d="M188.08 21.0671V29.4068H186.324V14.8542H188.08V17.709C189.211 15.6373 191.098 14.6018 193.739 14.6026H194.164V16.5058C193.889 16.4215 193.602 16.3835 193.315 16.3934C191.844 16.3934 190.599 16.8413 189.58 17.7371C189.099 18.1501 188.715 18.6623 188.456 19.2376C188.197 19.8129 188.069 20.4374 188.08 21.0671Z" fill="#34394F"/>
<path d="M201.887 31.6447L203.047 28.9866L197.02 14.8542H198.859L203.954 26.8879L209.16 14.8542H211L203.415 32.2335C202.888 33.4453 202.246 34.3265 201.49 34.877C200.734 35.4275 199.772 35.7028 198.605 35.7028H197.863V34.0243H198.605C200.113 34.0243 201.207 33.2311 201.887 31.6447Z" fill="#34394F"/>
<path d="M41.3859 16.1803C40.6758 13.0442 39.2375 10.1146 37.1847 7.6232C35.1319 5.13178 32.521 3.14692 29.5585 1.82563C26.596 0.504347 23.3632 -0.117111 20.1159 0.0104288C16.8686 0.137969 13.6959 1.011 10.8487 2.56047C8.00153 4.10993 5.55804 6.29331 3.71154 8.93787C1.86503 11.5824 0.666189 14.6156 0.209843 17.7975C-0.246503 20.9793 0.0521717 24.2225 1.08224 27.2705C2.1123 30.3185 3.8455 33.0876 6.14471 35.3589C8.95166 38.1347 12.4992 40.0637 16.3732 40.9207L14.0705 43.1977L20.9414 49.9957L35.5577 35.5458L36.0691 35.04C38.4552 32.5711 40.1888 29.5583 41.1162 26.2686C42.0436 22.9789 42.1362 19.5138 41.3859 16.1803ZM32.1148 21.764C31.8806 24.2513 30.7976 26.5858 29.0438 28.3837L28.7375 28.6867C27.574 29.8031 26.1788 30.6558 24.6487 31.1857C23.1185 31.7156 21.4902 31.9099 19.8765 31.7552C19.2408 31.697 18.6116 31.5829 17.9964 31.4144C15.9326 30.8594 14.0721 29.7328 12.634 28.1673C11.1959 26.6018 10.2401 24.6627 9.87899 22.5781C9.51792 20.4935 9.76667 18.3502 10.5959 16.4007C11.4252 14.4512 12.8005 12.7766 14.5599 11.574C16.3193 10.3714 18.3895 9.69097 20.5268 9.61273C22.6641 9.53448 24.7795 10.0617 26.624 11.1324C28.4684 12.203 29.9652 13.7725 30.9379 15.656C31.9107 17.5396 32.319 19.6587 32.1148 21.764Z" fill="#33CC66"/>
<path d="M35.8132 6.12981L28.9424 12.9242C27.9007 11.8792 26.66 11.0487 25.2919 10.4805C23.9238 9.91236 22.4554 9.61785 20.9716 9.61398C19.4878 9.61012 18.0178 9.89699 16.6467 10.458C15.2756 11.019 14.0305 11.8431 12.9833 12.8826L6.11121 6.09072C8.05978 4.15718 10.3758 2.62374 12.9259 1.57862C15.476 0.533496 18.21 -0.0026686 20.9704 0.000964384C23.7309 0.00459737 26.4634 0.547955 29.0107 1.59978C31.558 2.65161 33.8699 4.19115 35.8132 6.12981Z" fill="#34394F"/>
<path opacity="0.6" d="M28.7373 28.6922L16.3729 40.9237C14.3305 40.4744 12.3685 39.7224 10.5533 38.6931L17.9962 31.4199C18.6114 31.5884 19.2406 31.7025 19.8763 31.7607C21.49 31.9154 23.1183 31.7211 24.6484 31.1912C26.1785 30.6613 27.5738 29.8086 28.7373 28.6922Z" fill="url(#paint0_linear)"/>
</g>
<defs>
<linearGradient id="paint0_linear" x1="17.628" y1="31.6972" x2="21.6198" y2="35.7352" gradientUnits="userSpaceOnUse">
<stop stop-color="#33CC66"/>
<stop offset="0.1" stop-color="#31C563"/>
<stop offset="0.25" stop-color="#2CB259"/>
<stop offset="0.43" stop-color="#259249"/>
<stop offset="0.63" stop-color="#1A6633"/>
<stop offset="0.84" stop-color="#0C2F17"/>
<stop offset="1"/>
</linearGradient>
<clipPath id="clip0">
<rect width="211" height="50" fill="white"/>
</clipPath>
</defs>
</svg>
